<svg width="121" height="24" viewBox="0 0 121 24" fill="none" xmlns="http://www.w3.org/2000/svg">
  <g clip-path="url(#clip0_3176_7158)">
    <path
      d="M48.8396 11.9894C48.8396 18.5803 43.6972 23.9789 36.6224 23.9789C29.5476 23.9789 24.4707 18.6466 24.4707 12.0557V11.9894C24.4707 5.39856 29.6131 0 36.6879 0C43.7627 0 48.8396 5.33232 48.8396 11.9232V11.9894ZM43.5662 12.0557V11.9894C43.5662 8.01504 40.6839 4.70304 36.6224 4.70304C32.5609 4.70304 29.7441 7.9488 29.7441 11.9232V11.9894C29.7441 15.9638 32.6264 19.2758 36.6879 19.2758C40.7494 19.2758 43.5662 16.0301 43.5662 12.0557ZM69.7038 5.10048H62.7272V23.5814H57.6831V5.10048H50.7065V0.39744H69.7038V5.10048ZM78.2525 0.39744V13.513C78.2525 17.2886 80.1195 19.2427 83.1983 19.2427C86.2772 19.2427 88.1441 17.3549 88.1441 13.6786V0.39744H93.1882V13.4798C93.1882 20.5013 89.2905 23.9458 83.1328 23.9458C76.9751 23.9458 73.2084 20.4682 73.2084 13.6454V0.39744H78.2525ZM103.085 0.39744L109.112 10.201L115.139 0.39744H120.576V23.5814H115.565V8.4456L109.112 18.3485H108.981L102.594 8.54496V23.5814H97.6482V0.39744H103.085ZM4.94401 0.39744L15.6873 14.6722V0.39744H20.6658V23.5814H16.3751L5.27155 8.84304V23.31L0.292969 16.6949V0.39744H4.94401Z"
      fill="white" />
  </g>
  <defs>
    <clipPath id="clip0_3176_7158">
      <rect width="120.75" height="24" fill="white" />
    </clipPath>
  </defs>
</svg>